<svg width="29" height="35" viewBox="0 0 29 35" fill="none" xmlns="http://www.w3.org/2000/svg">
<g filter="url(#filter0_d_1_958)">
<path fill-rule="evenodd" clip-rule="evenodd" d="M14.231 7.50547C16.88 5.11238 23.5017 9.30239 14.231 14.6881C4.96022 9.30239 11.5819 5.11406 14.231 7.50883V7.50547Z" fill="#E6E6E6"/>
<path d="M4 3.53713C4 2.66724 4.3593 1.83298 4.99885 1.21787C5.63841 0.602765 6.50583 0.257202 7.4103 0.257202L21.0515 0.257202C21.956 0.257202 22.8234 0.602765 23.4629 1.21787C24.1025 1.83298 24.4618 2.66724 24.4618 3.53713V25.6767C24.4617 25.825 24.4198 25.9705 24.3405 26.0977C24.2613 26.225 24.1476 26.3291 24.0116 26.3991C23.8757 26.4691 23.7225 26.5024 23.5685 26.4953C23.4144 26.4882 23.2653 26.4411 23.1369 26.3589L14.2309 21.7424L5.3249 26.3589C5.19651 26.4411 5.04735 26.4882 4.89331 26.4953C4.73927 26.5024 4.58612 26.4691 4.45016 26.3991C4.3142 26.3291 4.20053 26.225 4.12126 26.0977C4.04199 25.9705 4.00008 25.825 4 25.6767V3.53713ZM7.4103 1.89717C6.95807 1.89717 6.52435 2.06995 6.20458 2.3775C5.8848 2.68506 5.70515 3.10219 5.70515 3.53713V24.1449L13.7586 20.0745C13.8985 19.985 14.0628 19.9372 14.2309 19.9372C14.399 19.9372 14.5633 19.985 14.7032 20.0745L22.7567 24.1449V3.53713C22.7567 3.10219 22.577 2.68506 22.2572 2.3775C21.9374 2.06995 21.5037 1.89717 21.0515 1.89717H7.4103Z" fill="#E6E6E6"/>
</g>
<defs>
<filter id="filter0_d_1_958" x="0" y="0.257202" width="28.4619" height="34.239" filterUnits="userSpaceOnUse" color-interpolation-filters="sRGB">
<feFlood flood-opacity="0" result="BackgroundImageFix"/>
<feColorMatrix in="SourceAlpha" type="matrix" values="0 0 0 0 0 0 0 0 0 0 0 0 0 0 0 0 0 0 127 0" result="hardAlpha"/>
<feOffset dy="4"/>
<feGaussianBlur stdDeviation="2"/>
<feComposite in2="hardAlpha" operator="out"/>
<feColorMatrix type="matrix" values="0 0 0 0 0 0 0 0 0 0 0 0 0 0 0 0 0 0 0.25 0"/>
<feBlend mode="normal" in2="BackgroundImageFix" result="effect1_dropShadow_1_958"/>
<feBlend mode="normal" in="SourceGraphic" in2="effect1_dropShadow_1_958" result="shape"/>
</filter>
</defs>
</svg>
