<svg width="40" height="34" viewBox="0 0 40 34" fill="none" xmlns="http://www.w3.org/2000/svg">
<path d="M13.3333 19.7131C12.8611 19.7131 12.465 19.5811 12.145 19.3171C11.825 19.0531 11.6656 18.7268 11.6667 18.3381C11.6667 17.9486 11.8267 17.6218 12.1467 17.3578C12.4667 17.0938 12.8622 16.9622 13.3333 16.9631C13.8056 16.9631 14.2017 17.0951 14.5217 17.3591C14.8417 17.6231 15.0011 17.9495 15 18.3381C15 18.7277 14.84 19.0545 14.52 19.3185C14.2 19.5825 13.8044 19.7141 13.3333 19.7131ZM20 19.7131C19.5278 19.7131 19.1317 19.5811 18.8117 19.3171C18.4917 19.0531 18.3322 18.7268 18.3333 18.3381C18.3333 17.9486 18.4933 17.6218 18.8133 17.3578C19.1333 17.0938 19.5289 16.9622 20 16.9631C20.4722 16.9631 20.8683 17.0951 21.1883 17.3591C21.5083 17.6231 21.6678 17.9495 21.6667 18.3381C21.6667 18.7277 21.5067 19.0545 21.1867 19.3185C20.8667 19.5825 20.4711 19.7141 20 19.7131ZM26.6667 19.7131C26.1944 19.7131 25.7983 19.5811 25.4783 19.3171C25.1583 19.0531 24.9989 18.7268 25 18.3381C25 17.9486 25.16 17.6218 25.48 17.3578C25.8 17.0938 26.1956 16.9622 26.6667 16.9631C27.1389 16.9631 27.535 17.0951 27.855 17.3591C28.175 17.6231 28.3344 17.9495 28.3333 18.3381C28.3333 18.7277 28.1733 19.0545 27.8533 19.3185C27.5333 19.5825 27.1378 19.7141 26.6667 19.7131ZM8.33334 30.7131C7.41667 30.7131 6.63167 30.4436 5.97834 29.9046C5.325 29.3656 4.99889 28.7185 5 27.9631V8.71313C5 7.95688 5.32667 7.30926 5.98 6.77026C6.63334 6.23126 7.41778 5.96222 8.33334 5.96313H10V3.21313H13.3333V5.96313H26.6667V3.21313H30V5.96313H31.6667C32.5833 5.96313 33.3683 6.23263 34.0217 6.77163C34.675 7.31063 35.0011 7.9578 35 8.71313V27.9631C35 28.7194 34.6733 29.367 34.02 29.906C33.3667 30.445 32.5822 30.7141 31.6667 30.7131H8.33334ZM8.33334 27.9631H31.6667V14.2131H8.33334V27.9631ZM8.33334 11.4631H31.6667V8.71313H8.33334V11.4631Z" fill="#FBFBFB"/>
</svg>
