<svg width="36" height="34" viewBox="0 0 36 34" fill="none" xmlns="http://www.w3.org/2000/svg"> <path d="M23.154 19.8333H22.0175L21.6147 19.4508C23.0246 17.8358 23.8733 15.7392 23.8733 13.4583C23.8733 8.3725 19.687 4.25 14.5224 4.25C9.35775 4.25 5.17139 8.3725 5.17139 13.4583C5.17139 18.5442 9.35775 22.6667 14.5224 22.6667C16.8385 22.6667 18.9677 21.8308 20.6077 20.4425L20.9961 20.8392V21.9583L28.1892 29.0275L30.3327 26.9167L23.154 19.8333ZM14.5224 19.8333C10.9402 19.8333 8.04861 16.9858 8.04861 13.4583C8.04861 9.93083 10.9402 7.08333 14.5224 7.08333C18.1045 7.08333 20.9961 9.93083 20.9961 13.4583C20.9961 16.9858 18.1045 19.8333 14.5224 19.8333Z" fill="#FBFBFB"/>
</svg>
